<?xml version="1.0" encoding="UTF-8"?>
<svg width="26px" height="21px" viewBox="0 0 26 21" version="1.1" xmlns="http://www.w3.org/2000/svg" xmlns:xlink="http://www.w3.org/1999/xlink">
    <title>形状结合</title>
    <g id="控件" stroke="none" stroke-width="1" fill="none" fill-rule="evenodd">
        <g id="icon可点击" transform="translate(-42.000000, -760.000000)" fill="#000000">
            <path d="M52,768 C53.1045695,768 54,768.895431 54,770 L54,781 C54,782.104569 53.1045695,783 52,783 L47,783 C45.8954305,783 45,782.104569 45,781 L45,770 C45,768.895431 45.8954305,768 47,768 L52,768 Z M63,775 C64.1045695,775 65,775.895431 65,777 L65,781 C65,782.104569 64.1045695,783 63,783 L58,783 C56.8954305,783 56,782.104569 56,781 L56,777 C56,775.895431 56.8954305,775 58,775 L63,775 Z M51,769.764706 L48,769.764706 C47.4871642,769.764706 47.0644928,770.150746 47.0067277,770.648085 L47,770.764706 L47,780.235294 C47,780.74813 47.3860402,781.170801 47.8833789,781.228566 L48,781.235294 L51,781.235294 C51.5128358,781.235294 51.9355072,780.849254 51.9932723,780.351915 L52,780.235294 L52,770.764706 C52,770.212421 51.5522847,769.764706 51,769.764706 Z M62,776.777778 L59,776.777778 C58.4871642,776.777778 58.0644928,777.163818 58.0067277,777.661157 L58,777.777778 L58,780.222222 C58,780.735058 58.3860402,781.157729 58.8833789,781.215494 L59,781.222222 L62,781.222222 C62.5128358,781.222222 62.9355072,780.836182 62.9932723,780.338843 L63,780.222222 L63,777.777778 C63,777.225493 62.5522847,776.777778 62,776.777778 Z M63,758 C64.1045695,758 65,758.895431 65,760 L65,771 C65,772.104569 64.1045695,773 63,773 L58,773 C56.8954305,773 56,772.104569 56,771 L56,760 C56,758.895431 56.8954305,758 58,758 L63,758 Z M62,759.764706 L59,759.764706 C58.4871642,759.764706 58.0644928,760.150746 58.0067277,760.648085 L58,760.764706 L58,770.235294 C58,770.74813 58.3860402,771.170801 58.8833789,771.228566 L59,771.235294 L62,771.235294 C62.5128358,771.235294 62.9355072,770.849254 62.9932723,770.351915 L63,770.235294 L63,760.764706 C63,760.212421 62.5522847,759.764706 62,759.764706 Z M52,758 C53.1045695,758 54,758.895431 54,760 L54,764 C54,765.104569 53.1045695,766 52,766 L47,766 C45.8954305,766 45,765.104569 45,764 L45,760 C45,758.895431 45.8954305,758 47,758 L52,758 Z M51,759.777778 L48,759.777778 C47.4871642,759.777778 47.0644928,760.163818 47.0067277,760.661157 L47,760.777778 L47,763.222222 C47,763.735058 47.3860402,764.157729 47.8833789,764.215494 L48,764.222222 L51,764.222222 C51.5128358,764.222222 51.9355072,763.836182 51.9932723,763.338843 L52,763.222222 L52,760.777778 C52,760.225493 51.5522847,759.777778 51,759.777778 Z" id="形状结合" transform="translate(55.000000, 770.500000) rotate(-270.000000) translate(-55.000000, -770.500000) "></path>
        </g>
    </g>
</svg>