<?xml version="1.0" encoding="UTF-8"?>
<svg width="28px" height="24px" viewBox="0 0 28 24" version="1.1" xmlns="http://www.w3.org/2000/svg" xmlns:xlink="http://www.w3.org/1999/xlink">
    <title>Style</title>
    <g id="控件" stroke="none" stroke-width="1" fill="none" fill-rule="evenodd">
        <g id="icon可点击" transform="translate(-415.000000, -59.000000)" fill="#252C32">
            <path d="M438.006573,57 C439.663428,57 441.006573,58.3431458 441.006573,60 L441.006573,60 L441.006573,82 C441.006573,83.6568543 439.663428,85 438.006573,85 L438.006573,85 L429.006573,85 L429.006573,83 L438.006573,83 C438.558858,83 439.006573,82.5522848 439.006573,82 L439.006573,82 L439.006573,60 C439.006573,59.4477153 438.558858,59 438.006573,59 L438.006573,59 L429.006573,59 L429.006573,57 Z M429,64.55 L434,69.55 C434.375554,69.9251366 434.586573,70.4341815 434.586573,70.965 C434.586573,71.4958185 434.375554,72.0048635 434,72.3800001 L434,72.3800001 L429,77.3800001 L427.58,75.9300001 L431.58,71.93 L417,71.93 L417,69.93 L431.58,69.93 L427.58,65.93 L429,64.55 Z" id="Style" transform="translate(429.003287, 71.000000) rotate(-270.000000) translate(-429.003287, -71.000000) "></path>
        </g>
    </g>
</svg>