<?xml version="1.0" encoding="UTF-8"?>
<svg width="1349px" height="438px" viewBox="0 0 1349 438" version="1.1" xmlns="http://www.w3.org/2000/svg" xmlns:xlink="http://www.w3.org/1999/xlink">
    <title>编组 3</title>
    <g id="页面-1" stroke="none" stroke-width="1" fill="none" fill-rule="evenodd">
        <g id="pkgship切图" transform="translate(-299.000000, -152.000000)">
            <rect fill="#FFFFFF" x="0" y="0" width="3140" height="2760"></rect>
            <g id="编组-3" transform="translate(349.000000, 243.000000)">
                <g id="地球" transform="translate(0.035816, 0.636385)">
                    <path d="M1261,630.5 C1261,978.715112 978.716539,1261 630.503187,1261 C282.283461,1261 0,978.715112 0,630.5 C0,282.284888 282.283461,0 630.503187,0 C978.716539,0 1261,282.284888 1261,630.5" id="Fill-1" fill="#FFFFFF"></path>
                    <path d="M1261,630.5 C1261,978.715112 978.716539,1261 630.503187,1261 C282.283461,1261 0,978.715112 0,630.5 C0,282.284888 282.283461,0 630.503187,0 C978.716539,0 1261,282.284888 1261,630.5 Z" id="Stroke-3" stroke="#000000" stroke-width="3" stroke-linecap="round" stroke-linejoin="round"></path>
                    <path d="M1044,157.788662 C933.235141,61.3631477 788.613589,3 630.388103,3 C548.700694,3 470.643979,18.5485822 399,46.8698992 C399,46.8698992 400.875965,119.681524 497.073385,131.021563 C593.264424,142.367999 678.135867,77.7048291 794.133008,91.5968572 C910.130149,105.495281 937.389063,161.875681 1044,157.788662" id="Fill-5" fill="#6CC4FF" opacity="0.501158249"></path>
                    <path d="M760.489584,542.421642 C661.537725,485.915377 576.728222,584.794969 474.951718,514.168509 C373.175213,443.535678 387.311193,279.675155 265.743041,257.309685 C144.17489,234.944215 102.111263,290.469203 102.111263,290.469203 C39.3697019,388.412121 3,504.846377 3,629.768043 C3,707.594782 17.1168513,782.127234 42.9339837,850.950437 C187.666779,854.346676 155.486224,963.37675 359.039233,943.604655 C562.592242,923.826188 562.592242,757.136529 678.504727,740.187198 C794.417211,723.237867 859.441444,598.927907 760.489584,542.421642" id="Fill-7" fill="#6CC4FF" opacity="0.501158249"></path>
                    <path d="M1186.79115,344 C1186.79115,344 1121.46104,395.028038 1135.61217,522.33017 C1149.76331,649.625922 1201.74654,692.066346 1160.18676,805.217416 C1118.63336,918.368487 1056.62242,930.528957 1089.04811,1056 C1192.10181,943.697483 1255,793.98206 1255,629.592408 C1255,526.79624 1230.40626,429.748542 1186.79115,344" id="Fill-9" fill="#6CC4FF"></path>
                </g>
            </g>
        </g>
    </g>
</svg>