<?xml version="1.0" encoding="UTF-8"?>
<svg width="16px" height="16px" viewBox="0 0 16 16" version="1.1" xmlns="http://www.w3.org/2000/svg" xmlns:xlink="http://www.w3.org/1999/xlink">
    <title>画板</title>
    <g id="-" stroke="none" stroke-width="1" fill="none" fill-rule="evenodd" opacity="0.5">
        <g id="openEuler/icons/help" fill="#0B162B">
            <path d="M7.99999998,0.999999978 C9.85651543,0.999999978 11.6369928,1.73749786 12.9497475,3.05025252 C14.2625021,4.36300717 15,6.14348457 15,7.99999998 C15,11.8659933 11.8659933,15 7.99999998,15 C4.13400674,15 0.999999978,11.8659933 0.999999978,7.99999998 C0.999999978,4.13400674 4.13400674,0.999999978 7.99999998,0.999999978 Z M7.99999998,1.99999998 C4.68629149,1.99999998 1.99999998,4.68629149 1.99999998,7.99999998 C1.99999998,11.3137085 4.68629149,14 7.99999998,14 C9.59129894,14 11.1174224,13.367859 12.2426407,12.2426407 C13.367859,11.1174224 14,9.59129894 14,7.99999998 C14,4.68629149 11.3137085,1.99999998 7.99999998,1.99999998 Z M8,11 C8.55228475,11 9,11.4477153 9,12 C9,12.5522848 8.55228475,13 8,13 C7.44771525,13 7,12.5522848 7,12 C7,11.4477153 7.44771525,11 8,11 Z M8.99999999,3.49999999 C9.82842713,3.49999999 10.5,4.17157286 10.5,4.99999999 L10.5,4.99999999 L10.5,5.58499999 C10.4996499,5.98269069 10.341385,6.36396528 10.06,6.645 L10.06,6.645 L8.645,8.06 C8.55140674,8.15435942 8.49923162,8.28209851 8.49999999,8.415 L8.49999999,8.415 L8.49999999,9.99999999 L7.49999999,9.99999999 L7.49999999,8.415 C7.5003501,8.0173093 7.65861502,7.63603472 7.94,7.355 L7.94,7.355 L9.355,5.93999999 C9.44859326,5.84564058 9.50076838,5.71790149 9.49999999,5.58499999 L9.49999999,5.58499999 L9.49999999,4.99999999 C9.49999999,4.72385761 9.27614238,4.49999999 8.99999999,4.49999999 L8.99999999,4.49999999 L6.99999999,4.49999999 C6.72385762,4.49999999 6.49999999,4.72385761 6.49999999,4.99999999 L6.49999999,4.99999999 L6.49999999,5.99999999 L5.49999999,5.99999999 L5.49999999,4.99999999 C5.49999999,4.17157286 6.17157287,3.49999999 6.99999999,3.49999999 L6.99999999,3.49999999 Z" id="Style"></path>
        </g>
    </g>
</svg>